<svg xmlns="http://www.w3.org/2000/svg" xmlns:xlink="http://www.w3.org/1999/xlink" width="286.998" height="89" viewBox="0 0 286.998 89">
  <defs>
    <clipPath id="clip-path">
      <rect id="Rectangle_527" data-name="Rectangle 527" width="189.923" height="65.596" transform="translate(0)" fill="#fff" stroke="#707070" stroke-width="1"/>
    </clipPath>
  </defs>
  <g id="FOSLogo" transform="translate(-1227.685 -131.126)">
    <g id="Mask_Group_107" data-name="Mask Group 107" transform="translate(1324.759 140.855)" clip-path="url(#clip-path)">
      <g id="Discover_the_Marvels_of_Science_1_" data-name="Discover the Marvels of Science (1)" transform="translate(3.814 0)">
        <path id="Path_309" data-name="Path 309" d="M18.478,14.848a.548.548,0,0,1-.155.408.555.555,0,0,1-.408.146H8.834a.2.2,0,0,0-.226.226v3.5a.2.2,0,0,0,.226.22H14.08a.528.528,0,0,1,.563.563v4.836a.572.572,0,0,1-.155.417.552.552,0,0,1-.408.146H8.834c-.152,0-.226.071-.226.217v9.388a.555.555,0,0,1-.155.411.541.541,0,0,1-.4.143H2.171a.586.586,0,0,1-.417-.143.574.574,0,0,1-.146-.411V9.965a.536.536,0,0,1,.146-.4.567.567,0,0,1,.417-.155H17.915a.537.537,0,0,1,.408.155.519.519,0,0,1,.155.4ZM22.76,35.469a.586.586,0,0,1-.417-.143.574.574,0,0,1-.146-.411V9.965a.536.536,0,0,1,.146-.4.567.567,0,0,1,.417-.155h5.882a.529.529,0,0,1,.4.155.519.519,0,0,1,.155.4v24.95a.555.555,0,0,1-.155.411.546.546,0,0,1-.4.143Zm27.96-20.621a.519.519,0,0,1-.563.554H41.075a.2.2,0,0,0-.227.226v3.5a.2.2,0,0,0,.227.22h5.244a.528.528,0,0,1,.563.563v4.836a.56.56,0,0,1-.155.417.543.543,0,0,1-.408.146H41.075c-.152,0-.227.071-.227.217v3.727a.2.2,0,0,0,.227.227h9.081a.548.548,0,0,1,.408.146.536.536,0,0,1,.155.408v4.88a.567.567,0,0,1-.155.411.559.559,0,0,1-.408.143H34.413A.586.586,0,0,1,34,35.326a.574.574,0,0,1-.146-.411V9.965a.536.536,0,0,1,.146-.4.567.567,0,0,1,.417-.155H50.156a.541.541,0,0,1,.408.155.529.529,0,0,1,.155.4Zm4.8,20.621a.6.6,0,0,1-.42-.143.587.587,0,0,1-.146-.411V9.965a.548.548,0,0,1,.146-.4.579.579,0,0,1,.42-.155H61.4a.536.536,0,0,1,.4.155.528.528,0,0,1,.152.4V29.254a.2.2,0,0,0,.229.227h9.344a.507.507,0,0,1,.554.554v4.88a.574.574,0,0,1-.146.411.559.559,0,0,1-.408.143Zm21.22,0a.6.6,0,0,1-.42-.143.585.585,0,0,1-.143-.411V9.965a.545.545,0,0,1,.143-.4.578.578,0,0,1,.42-.155h8.444a11.148,11.148,0,0,1,4.845.992,7.628,7.628,0,0,1,3.236,2.771A7.433,7.433,0,0,1,94.419,17.3V27.544A7.551,7.551,0,0,1,93.266,31.7a7.672,7.672,0,0,1-3.236,2.792,11.233,11.233,0,0,1-4.845.98Zm6.436-6.215a.2.2,0,0,0,.226.227l1.818-.045a1.933,1.933,0,0,0,1.546-.736,3.165,3.165,0,0,0,.653-1.981v-8.6a2.993,2.993,0,0,0-.617-1.972,1.979,1.979,0,0,0-1.618-.745H83.4a.2.2,0,0,0-.226.226ZM107.75,35.77a11.375,11.375,0,0,1-4.827-.962,7.619,7.619,0,0,1-3.2-2.7,7.142,7.142,0,0,1-1.138-4.01v-.852a.555.555,0,0,1,.146-.411.572.572,0,0,1,.417-.155h5.771a.536.536,0,0,1,.4.155.548.548,0,0,1,.155.411v.515a1.826,1.826,0,0,0,.688,1.418,2.735,2.735,0,0,0,1.847.593,1.816,1.816,0,0,0,1.371-.465,1.492,1.492,0,0,0,.447-1.064,1.4,1.4,0,0,0-.62-1.162,13.1,13.1,0,0,0-2.318-1.254l-.9-.447a32.781,32.781,0,0,1-3.608-2.008,9.58,9.58,0,0,1-2.643-2.664,6.91,6.91,0,0,1-1.12-3.963,7.114,7.114,0,0,1,1.138-4,7.455,7.455,0,0,1,3.126-2.682,10.457,10.457,0,0,1,4.564-.953,10.737,10.737,0,0,1,4.726,1.007,7.742,7.742,0,0,1,3.263,2.828,7.569,7.569,0,0,1,1.174,4.171v.59a.579.579,0,0,1-.155.42.568.568,0,0,1-.411.146h-5.771a.579.579,0,0,1-.408-.146.587.587,0,0,1-.146-.42v-.515a1.977,1.977,0,0,0-.653-1.454,2.351,2.351,0,0,0-1.728-.638,1.969,1.969,0,0,0-1.326.435,1.464,1.464,0,0,0-.5,1.174,1.861,1.861,0,0,0,.834,1.472,20.233,20.233,0,0,0,3.3,1.8q.371.228,1.117.6a32.518,32.518,0,0,1,3.164,1.919,7.116,7.116,0,0,1,2.008,2.2,6.335,6.335,0,0,1,.816,3.328,7.013,7.013,0,0,1-2.479,5.661A9.8,9.8,0,0,1,107.75,35.77Zm0,0" transform="translate(-1.272 101.424)" fill="none" stroke="#fff" stroke-width="1.159"/>
        <path id="Path_310" data-name="Path 310" d="M10.557,84.479a10.419,10.419,0,0,1-4.916-1.117A7.943,7.943,0,0,1,2.37,80.218a9.371,9.371,0,0,1-1.156-4.711V66.646a9.26,9.26,0,0,1,1.156-4.69,7.861,7.861,0,0,1,3.271-3.108,10.559,10.559,0,0,1,4.916-1.1,10.638,10.638,0,0,1,4.937,1.1,7.825,7.825,0,0,1,3.3,3.108,9.23,9.23,0,0,1,1.156,4.69v8.861a9.227,9.227,0,0,1-1.174,4.711,8.047,8.047,0,0,1-3.3,3.143A10.389,10.389,0,0,1,10.557,84.479Zm0-5.989a2.194,2.194,0,0,0,1.737-.745,2.891,2.891,0,0,0,.655-1.981V66.456a2.877,2.877,0,0,0-.655-1.972,2.194,2.194,0,0,0-1.737-.745,2.142,2.142,0,0,0-1.689.745,2.892,2.892,0,0,0-.655,1.972v9.308a2.906,2.906,0,0,0,.655,1.981A2.142,2.142,0,0,0,10.557,78.49Zm30.647-15a.558.558,0,0,1-.152.408.567.567,0,0,1-.411.146H31.563a.2.2,0,0,0-.229.226v3.5a.2.2,0,0,0,.229.22h5.244a.528.528,0,0,1,.563.563v4.836a.559.559,0,0,1-.155.417.543.543,0,0,1-.408.146H31.563c-.152,0-.229.072-.229.218v9.388a.565.565,0,0,1-.152.411.553.553,0,0,1-.4.143H24.9a.6.6,0,0,1-.42-.143.586.586,0,0,1-.143-.411V58.6a.546.546,0,0,1,.143-.4.579.579,0,0,1,.42-.155H40.641a.548.548,0,0,1,.411.155.528.528,0,0,1,.152.4Zm0,0" transform="translate(-1.178 89.885)" fill="none" stroke="#fff" stroke-width="1.159"/>
        <path id="Path_311" data-name="Path 311" d="M10.329,133.044a11.373,11.373,0,0,1-4.827-.962,7.619,7.619,0,0,1-3.2-2.7,7.143,7.143,0,0,1-1.138-4.01v-.852a.555.555,0,0,1,.146-.411.572.572,0,0,1,.417-.155H7.5a.536.536,0,0,1,.4.155.548.548,0,0,1,.155.411v.516a1.821,1.821,0,0,0,.688,1.418,2.735,2.735,0,0,0,1.847.593,1.816,1.816,0,0,0,1.371-.465,1.492,1.492,0,0,0,.447-1.064,1.4,1.4,0,0,0-.62-1.162A13.086,13.086,0,0,0,9.474,123.1l-.9-.447a32.78,32.78,0,0,1-3.608-2.008,9.577,9.577,0,0,1-2.643-2.664A6.909,6.909,0,0,1,1.2,114.02a7.114,7.114,0,0,1,1.138-4,7.456,7.456,0,0,1,3.125-2.681,10.458,10.458,0,0,1,4.565-.954,10.737,10.737,0,0,1,4.725,1.007,7.743,7.743,0,0,1,3.263,2.828,7.569,7.569,0,0,1,1.174,4.171v.593a.577.577,0,0,1-.155.417.567.567,0,0,1-.411.146H12.855a.508.508,0,0,1-.554-.563v-.518a1.976,1.976,0,0,0-.652-1.454,2.351,2.351,0,0,0-1.728-.638,1.969,1.969,0,0,0-1.326.435,1.464,1.464,0,0,0-.5,1.174,1.861,1.861,0,0,0,.834,1.472,20.225,20.225,0,0,0,3.3,1.8c.247.152.62.352,1.117.6a32,32,0,0,1,3.164,1.916,7.12,7.12,0,0,1,2.008,2.2,6.334,6.334,0,0,1,.816,3.328,7.013,7.013,0,0,1-2.479,5.661A9.8,9.8,0,0,1,10.329,133.044Zm22.185,0a10.4,10.4,0,0,1-4.845-1.081,7.866,7.866,0,0,1-3.236-3.072,9.08,9.08,0,0,1-1.153-4.636v-9.2a8.9,8.9,0,0,1,1.153-4.573,7.777,7.777,0,0,1,3.236-3.033,10.548,10.548,0,0,1,4.845-1.064,10.55,10.55,0,0,1,4.818,1.043,7.726,7.726,0,0,1,3.227,2.938,8.38,8.38,0,0,1,1.156,4.437.63.63,0,0,1-.155.426.531.531,0,0,1-.411.164l-5.879.262q-.554,0-.554-.518v-.408a2.4,2.4,0,0,0-.6-1.716,2.069,2.069,0,0,0-1.6-.638,2.124,2.124,0,0,0-1.618.655,2.372,2.372,0,0,0-.617,1.7V124.7a2.377,2.377,0,0,0,.617,1.7,2.15,2.15,0,0,0,1.618.647,2.1,2.1,0,0,0,1.6-.629,2.4,2.4,0,0,0,.6-1.716v-.447q0-.518.554-.519l5.879.256a.533.533,0,0,1,.566.563,8.566,8.566,0,0,1-1.156,4.463A7.683,7.683,0,0,1,37.314,132,10.557,10.557,0,0,1,32.514,133.044Zm14.078-.3a.591.591,0,0,1-.417-.143.574.574,0,0,1-.146-.411v-24.95a.536.536,0,0,1,.146-.4.572.572,0,0,1,.417-.155h5.881a.525.525,0,0,1,.4.155.518.518,0,0,1,.155.4v24.95a.555.555,0,0,1-.155.411.541.541,0,0,1-.4.143Zm27.959-20.621a.548.548,0,0,1-.155.408.555.555,0,0,1-.408.146H64.907a.2.2,0,0,0-.226.226v3.5a.2.2,0,0,0,.226.22h5.247a.528.528,0,0,1,.563.563v4.836a.572.572,0,0,1-.155.417.552.552,0,0,1-.408.146H64.907c-.152,0-.226.072-.226.218v3.727a.2.2,0,0,0,.226.226h9.082a.543.543,0,0,1,.408.146.526.526,0,0,1,.155.408v4.88a.515.515,0,0,1-.563.554H58.245a.586.586,0,0,1-.417-.143.574.574,0,0,1-.146-.411v-24.95a.536.536,0,0,1,.146-.4.567.567,0,0,1,.417-.155H73.989a.536.536,0,0,1,.408.155.518.518,0,0,1,.155.4Zm16.935-4.883a.548.548,0,0,1,.146-.4.567.567,0,0,1,.411-.155h5.843a.536.536,0,0,1,.408.155.518.518,0,0,1,.155.4v24.95a.515.515,0,0,1-.563.554H91.752a.6.6,0,0,1-.638-.408L85.945,120.2c-.027-.1-.078-.155-.155-.155s-.11.063-.11.191l.075,11.951a.567.567,0,0,1-.155.411.553.553,0,0,1-.4.143H79.355a.586.586,0,0,1-.417-.143.574.574,0,0,1-.146-.411v-24.95a.536.536,0,0,1,.146-.4.567.567,0,0,1,.417-.155h6.1a.6.6,0,0,1,.635.411l5.172,12.132c.024.1.075.149.146.137s.119-.09.119-.209Zm20.55,25.805a10.4,10.4,0,0,1-4.845-1.081,7.83,7.83,0,0,1-3.236-3.072,9.052,9.052,0,0,1-1.156-4.636v-9.2a8.872,8.872,0,0,1,1.156-4.573,7.742,7.742,0,0,1,3.236-3.033,11.607,11.607,0,0,1,9.662-.021,7.761,7.761,0,0,1,3.227,2.938,8.379,8.379,0,0,1,1.153,4.437.616.616,0,0,1-.155.426.52.52,0,0,1-.408.164l-5.882.262q-.554,0-.554-.518v-.408a2.4,2.4,0,0,0-.6-1.716,2.078,2.078,0,0,0-1.6-.638,2.115,2.115,0,0,0-1.618.655,2.361,2.361,0,0,0-.62,1.7V124.7a2.366,2.366,0,0,0,.62,1.7,2.14,2.14,0,0,0,1.618.647,2.1,2.1,0,0,0,1.6-.629,2.4,2.4,0,0,0,.6-1.716v-.447q0-.518.554-.519l5.882.256a.532.532,0,0,1,.563.563,8.564,8.564,0,0,1-1.153,4.463,7.708,7.708,0,0,1-3.248,2.98A10.536,10.536,0,0,1,112.037,133.044Zm30.382-20.922a.558.558,0,0,1-.152.408.567.567,0,0,1-.411.146h-9.079a.2.2,0,0,0-.229.226v3.5a.2.2,0,0,0,.229.22h5.244a.528.528,0,0,1,.563.563v4.836a.56.56,0,0,1-.155.417.543.543,0,0,1-.408.146h-5.244c-.152,0-.229.072-.229.218v3.727a.2.2,0,0,0,.229.226h9.079a.555.555,0,0,1,.411.146.535.535,0,0,1,.152.408v4.88a.512.512,0,0,1-.563.554H126.115a.6.6,0,0,1-.42-.143.586.586,0,0,1-.143-.411v-24.95a.546.546,0,0,1,.143-.4.579.579,0,0,1,.42-.155h15.741a.548.548,0,0,1,.411.155.527.527,0,0,1,.152.4Zm0,0" transform="translate(-1.167 78.345)" fill="none" stroke="#fff" stroke-width="1.159"/>
        <g id="Group_767" data-name="Group 767" transform="translate(53.142 149.581)">
          <g id="Group_766" data-name="Group 766" transform="translate(0 0)">
            <g id="Group_765" data-name="Group 765" transform="translate(0 0)">
              <path id="Path_312" data-name="Path 312" d="M.813-11.156H3.28A4.174,4.174,0,0,1,6.295-9.941,4.051,4.051,0,0,1,7.558-6.9,4.075,4.075,0,0,1,6.307-3.851a4.2,4.2,0,0,1-3.027,1.2H.813ZM2.755-4.375h.3A2.261,2.261,0,0,0,4.781-5.09a2.581,2.581,0,0,0,.691-1.8,2.512,2.512,0,0,0-.679-1.8,2.262,2.262,0,0,0-1.74-.727h-.3Zm0,0" transform="translate(-0.813 11.156)" fill="#fff"/>
            </g>
          </g>
        </g>
        <g id="Group_770" data-name="Group 770" transform="translate(60.746 149.581)">
          <g id="Group_769" data-name="Group 769" transform="translate(0 0)">
            <g id="Group_768" data-name="Group 768" transform="translate(0 0)">
              <path id="Path_313" data-name="Path 313" d="M2.755-11.156v8.509H.813v-8.509Zm0,0" transform="translate(-0.813 11.156)" fill="#fff"/>
            </g>
          </g>
        </g>
        <g id="Group_773" data-name="Group 773" transform="translate(63.538 149.426)">
          <g id="Group_772" data-name="Group 772" transform="translate(0 0)">
            <g id="Group_771" data-name="Group 771" transform="translate(0 0)">
              <path id="Path_314" data-name="Path 314" d="M3.828-11.359a4.584,4.584,0,0,1,1.347.2,4.183,4.183,0,0,1,.977.405l.31.2L5.687-9c-.066-.048-.152-.1-.262-.167a5.441,5.441,0,0,0-.62-.262A2.489,2.489,0,0,0,3.959-9.6a1.151,1.151,0,0,0-.751.215.658.658,0,0,0-.262.548.527.527,0,0,0,.119.334,1.929,1.929,0,0,0,.429.322c.2.113.372.2.524.274s.384.164.7.3a4.315,4.315,0,0,1,1.406.965,1.9,1.9,0,0,1,.584,1.359A2.944,2.944,0,0,1,6.45-4.006a2.081,2.081,0,0,1-.727.858A3.149,3.149,0,0,1,4.71-2.7a4.511,4.511,0,0,1-1.2.155,5.151,5.151,0,0,1-1.1-.119,3.882,3.882,0,0,1-.894-.274c-.238-.119-.459-.229-.655-.334a2.428,2.428,0,0,1-.417-.286L.313-3.66l.965-1.633c.086.072.2.161.346.262a5.84,5.84,0,0,0,.763.429,2.29,2.29,0,0,0,.977.262c.816,0,1.228-.277,1.228-.834a.558.558,0,0,0-.1-.31.9.9,0,0,0-.31-.3,2.717,2.717,0,0,0-.393-.238c-.113-.063-.295-.155-.548-.274S2.8-6.5,2.672-6.568a3.25,3.25,0,0,1-1.2-.953,2.044,2.044,0,0,1-.417-1.239A2.349,2.349,0,0,1,1.9-10.632,2.886,2.886,0,0,1,3.828-11.359Zm0,0" transform="translate(-0.313 11.359)" fill="#fff"/>
            </g>
          </g>
        </g>
        <g id="Group_776" data-name="Group 776" transform="translate(70.461 149.426)">
          <g id="Group_775" data-name="Group 775" transform="translate(0 0)">
            <g id="Group_774" data-name="Group 774" transform="translate(0 0)">
              <path id="Path_315" data-name="Path 315" d="M5.223-4.447a2.8,2.8,0,0,0,.858-.131,3.147,3.147,0,0,0,.608-.262l.2-.131.822,1.645a.568.568,0,0,1-.119.083c-.048.033-.161.1-.334.191a4.15,4.15,0,0,1-.56.25,5.883,5.883,0,0,1-.787.179,5.961,5.961,0,0,1-.989.083,4.584,4.584,0,0,1-2.252-.584,4.674,4.674,0,0,1-1.716-1.6A4.087,4.087,0,0,1,.313-6.938,4,4,0,0,1,.694-8.654,4.394,4.394,0,0,1,1.707-10.06,4.763,4.763,0,0,1,3.185-11a4.426,4.426,0,0,1,1.74-.358,5.408,5.408,0,0,1,1.514.2,3.409,3.409,0,0,1,.989.393l.286.191L6.891-8.916a1.08,1.08,0,0,0-.226-.155A3.8,3.8,0,0,0,6.093-9.3a2.6,2.6,0,0,0-.87-.155,3.373,3.373,0,0,0-1.263.226,2.216,2.216,0,0,0-.882.608,2.939,2.939,0,0,0-.5.8,2.35,2.35,0,0,0-.167.87,2.474,2.474,0,0,0,.727,1.74A2.739,2.739,0,0,0,5.223-4.447Zm0,0" transform="translate(-0.313 11.359)" fill="#fff"/>
            </g>
          </g>
        </g>
        <g id="Group_779" data-name="Group 779" transform="translate(78.219 149.426)">
          <g id="Group_778" data-name="Group 778" transform="translate(0 0)">
            <g id="Group_777" data-name="Group 777" transform="translate(0 0)">
              <path id="Path_316" data-name="Path 316" d="M.313-6.95a4.293,4.293,0,0,1,1.251-3.122A4.1,4.1,0,0,1,4.6-11.359,4.09,4.09,0,0,1,7.63-10.084,4.306,4.306,0,0,1,8.881-6.95,4.354,4.354,0,0,1,7.654-3.815,4.057,4.057,0,0,1,4.6-2.54,4.1,4.1,0,0,1,1.516-3.8,4.368,4.368,0,0,1,.313-6.95Zm2.086,0a3.526,3.526,0,0,0,.2,1.228,2.087,2.087,0,0,0,.727.93A2.094,2.094,0,0,0,4.6-4.411,1.9,1.9,0,0,0,6.236-5.15a2.979,2.979,0,0,0,.548-1.8,2.887,2.887,0,0,0-.56-1.788A1.9,1.9,0,0,0,4.6-9.488a1.947,1.947,0,0,0-1.633.751A2.841,2.841,0,0,0,2.4-6.95Zm0,0" transform="translate(-0.313 11.359)" fill="#fff"/>
            </g>
          </g>
        </g>
        <g id="Group_782" data-name="Group 782" transform="translate(86.73 149.581)">
          <g id="Group_781" data-name="Group 781" transform="translate(0 0)">
            <g id="Group_780" data-name="Group 780" transform="translate(0 0)">
              <path id="Path_317" data-name="Path 317" d="M3.188-2.647-.375-11.156H1.806l2.145,5.59L6.1-11.156H8.277L4.714-2.647Zm0,0" transform="translate(0.375 11.156)" fill="#fff"/>
            </g>
          </g>
        </g>
        <g id="Group_785" data-name="Group 785" transform="translate(95.713 149.581)">
          <g id="Group_784" data-name="Group 784" transform="translate(0 0)">
            <g id="Group_783" data-name="Group 783" transform="translate(0 0)">
              <path id="Path_318" data-name="Path 318" d="M5.675-11.156v1.7H2.755V-7.76h2.8v1.7h-2.8v1.7h2.92v1.7H.813v-8.509Zm0,0" transform="translate(-0.813 11.156)" fill="#fff"/>
            </g>
          </g>
        </g>
        <g id="Group_788" data-name="Group 788" transform="translate(101.689 149.581)">
          <g id="Group_787" data-name="Group 787" transform="translate(0 0)">
            <g id="Group_786" data-name="Group 786" transform="translate(0 0)">
              <path id="Path_319" data-name="Path 319" d="M.813-11.156H3.852a3.011,3.011,0,0,1,2,.656A2.32,2.32,0,0,1,6.628-8.63a2.545,2.545,0,0,1-.477,1.573,2.468,2.468,0,0,1-1.263.894l2.92,3.516H5.353l-2.6-3.361v3.361H.813ZM2.755-7.378h.226c.173,0,.322,0,.441-.012a2.14,2.14,0,0,0,.429-.072,1.052,1.052,0,0,0,.381-.167.907.907,0,0,0,.238-.334,1.2,1.2,0,0,0,.107-.524,1.167,1.167,0,0,0-.107-.524.817.817,0,0,0-.238-.334,1.009,1.009,0,0,0-.381-.179A2.674,2.674,0,0,0,3.423-9.6c-.119-.006-.268-.012-.441-.012H2.755Zm0,0" transform="translate(-0.813 11.156)" fill="#fff"/>
            </g>
          </g>
        </g>
        <g id="Group_791" data-name="Group 791" transform="translate(111.342 149.581)">
          <g id="Group_790" data-name="Group 790" transform="translate(0 0)">
            <g id="Group_789" data-name="Group 789" transform="translate(0 0)">
              <path id="Path_320" data-name="Path 320" d="M.109-9.452v-1.7H6.092v1.7H4.066v6.805H2.123V-9.452Zm0,0" transform="translate(-0.109 11.156)" fill="#fff"/>
            </g>
          </g>
        </g>
        <g id="Group_794" data-name="Group 794" transform="translate(118.019 149.581)">
          <g id="Group_793" data-name="Group 793" transform="translate(0 0)">
            <g id="Group_792" data-name="Group 792" transform="translate(0 0)">
              <path id="Path_321" data-name="Path 321" d="M2.755-6.055v3.409H.813v-8.509H2.755v3.4H5.5v-3.4H7.427v8.509H5.5V-6.055Zm0,0" transform="translate(-0.813 11.156)" fill="#fff"/>
            </g>
          </g>
        </g>
        <g id="Group_797" data-name="Group 797" transform="translate(125.869 149.581)">
          <g id="Group_796" data-name="Group 796" transform="translate(0 0)">
            <g id="Group_795" data-name="Group 795" transform="translate(0 0)">
              <path id="Path_322" data-name="Path 322" d="M5.675-11.156v1.7H2.755V-7.76h2.8v1.7h-2.8v1.7h2.92v1.7H.813v-8.509Zm0,0" transform="translate(-0.813 11.156)" fill="#fff"/>
            </g>
          </g>
        </g>
        <g id="Group_800" data-name="Group 800" transform="translate(134.205 149.581)">
          <g id="Group_799" data-name="Group 799" transform="translate(0 0)">
            <g id="Group_798" data-name="Group 798" transform="translate(0 0)">
              <path id="Path_323" data-name="Path 323" d="M7.7-2.647,7.3-7.688H7.25L5.51-2.695H4.354L2.614-7.688h-.06L2.149-2.647H.219l.763-8.509H3.043l1.883,4.91,1.883-4.91H8.871l.763,8.509Zm0,0" transform="translate(-0.219 11.156)" fill="#fff"/>
            </g>
          </g>
        </g>
        <g id="Group_803" data-name="Group 803" transform="translate(143.498 149.581)">
          <g id="Group_802" data-name="Group 802" transform="translate(0 0)">
            <g id="Group_801" data-name="Group 801" transform="translate(0 0)">
              <path id="Path_324" data-name="Path 324" d="M4.845-11.156,8.277-2.647H6.2l-.632-1.7H2.33l-.62,1.7H-.375l3.432-8.509Zm.072,5.113L3.963-8.522H3.939L3-6.043Zm0,0" transform="translate(0.375 11.156)" fill="#fff"/>
            </g>
          </g>
        </g>
        <g id="Group_806" data-name="Group 806" transform="translate(152.481 149.581)">
          <g id="Group_805" data-name="Group 805" transform="translate(0 0)">
            <g id="Group_804" data-name="Group 804" transform="translate(0 0)">
              <path id="Path_325" data-name="Path 325" d="M.813-11.156H3.852a3.011,3.011,0,0,1,2,.656A2.32,2.32,0,0,1,6.628-8.63a2.545,2.545,0,0,1-.477,1.573,2.468,2.468,0,0,1-1.263.894l2.92,3.516H5.353l-2.6-3.361v3.361H.813ZM2.755-7.378h.226c.173,0,.322,0,.441-.012a2.14,2.14,0,0,0,.429-.072,1.052,1.052,0,0,0,.381-.167.907.907,0,0,0,.238-.334,1.2,1.2,0,0,0,.107-.524,1.167,1.167,0,0,0-.107-.524.817.817,0,0,0-.238-.334,1.009,1.009,0,0,0-.381-.179A2.674,2.674,0,0,0,3.423-9.6c-.119-.006-.268-.012-.441-.012H2.755Zm0,0" transform="translate(-0.813 11.156)" fill="#fff"/>
            </g>
          </g>
        </g>
        <g id="Group_809" data-name="Group 809" transform="translate(158.952 149.581)">
          <g id="Group_808" data-name="Group 808" transform="translate(0 0)">
            <g id="Group_807" data-name="Group 807" transform="translate(0 0)">
              <path id="Path_326" data-name="Path 326" d="M3.188-2.647-.375-11.156H1.806l2.145,5.59L6.1-11.156H8.277L4.714-2.647Zm0,0" transform="translate(0.375 11.156)" fill="#fff"/>
            </g>
          </g>
        </g>
        <g id="Group_812" data-name="Group 812" transform="translate(167.936 149.581)">
          <g id="Group_811" data-name="Group 811" transform="translate(0 0)">
            <g id="Group_810" data-name="Group 810" transform="translate(0 0)">
              <path id="Path_327" data-name="Path 327" d="M5.675-11.156v1.7H2.755V-7.76h2.8v1.7h-2.8v1.7h2.92v1.7H.813v-8.509Zm0,0" transform="translate(-0.813 11.156)" fill="#fff"/>
            </g>
          </g>
        </g>
        <g id="Group_815" data-name="Group 815" transform="translate(173.911 149.581)">
          <g id="Group_814" data-name="Group 814" transform="translate(0 0)">
            <g id="Group_813" data-name="Group 813" transform="translate(0 0)">
              <path id="Path_328" data-name="Path 328" d="M2.755-11.156v6.805h2.92v1.7H.813v-8.509Zm0,0" transform="translate(-0.813 11.156)" fill="#fff"/>
            </g>
          </g>
        </g>
        <g id="Group_818" data-name="Group 818" transform="translate(179.351 149.426)">
          <g id="Group_817" data-name="Group 817" transform="translate(0 0)">
            <g id="Group_816" data-name="Group 816" transform="translate(0 0)">
              <path id="Path_329" data-name="Path 329" d="M3.828-11.359a4.584,4.584,0,0,1,1.347.2,4.183,4.183,0,0,1,.977.405l.31.2L5.687-9c-.066-.048-.152-.1-.262-.167a5.441,5.441,0,0,0-.62-.262A2.489,2.489,0,0,0,3.959-9.6a1.151,1.151,0,0,0-.751.215.658.658,0,0,0-.262.548.527.527,0,0,0,.119.334,1.929,1.929,0,0,0,.429.322c.2.113.372.2.524.274s.384.164.7.3a4.315,4.315,0,0,1,1.406.965,1.9,1.9,0,0,1,.584,1.359A2.944,2.944,0,0,1,6.45-4.006a2.081,2.081,0,0,1-.727.858A3.149,3.149,0,0,1,4.71-2.7a4.511,4.511,0,0,1-1.2.155,5.151,5.151,0,0,1-1.1-.119,3.882,3.882,0,0,1-.894-.274c-.238-.119-.459-.229-.655-.334a2.428,2.428,0,0,1-.417-.286L.313-3.66l.965-1.633c.086.072.2.161.346.262a5.84,5.84,0,0,0,.763.429,2.29,2.29,0,0,0,.977.262c.816,0,1.228-.277,1.228-.834a.558.558,0,0,0-.1-.31.9.9,0,0,0-.31-.3,2.717,2.717,0,0,0-.393-.238c-.113-.063-.295-.155-.548-.274S2.8-6.5,2.672-6.568a3.25,3.25,0,0,1-1.2-.953,2.044,2.044,0,0,1-.417-1.239A2.349,2.349,0,0,1,1.9-10.632,2.886,2.886,0,0,1,3.828-11.359Zm0,0" transform="translate(-0.313 11.359)" fill="#fff"/>
            </g>
          </g>
        </g>
        <g id="Group_821" data-name="Group 821" transform="translate(52.761 162.789)">
          <g id="Group_820" data-name="Group 820" transform="translate(0 0)">
            <g id="Group_819" data-name="Group 819" transform="translate(0 0)">
              <path id="Path_330" data-name="Path 330" d="M.313-6.95a4.293,4.293,0,0,1,1.251-3.122A4.1,4.1,0,0,1,4.6-11.359,4.09,4.09,0,0,1,7.63-10.084,4.306,4.306,0,0,1,8.881-6.95,4.354,4.354,0,0,1,7.654-3.815,4.057,4.057,0,0,1,4.6-2.54,4.1,4.1,0,0,1,1.516-3.8,4.368,4.368,0,0,1,.313-6.95Zm2.086,0a3.526,3.526,0,0,0,.2,1.228,2.087,2.087,0,0,0,.727.93A2.094,2.094,0,0,0,4.6-4.411,1.9,1.9,0,0,0,6.236-5.15a2.979,2.979,0,0,0,.548-1.8,2.887,2.887,0,0,0-.56-1.788A1.9,1.9,0,0,0,4.6-9.488a1.947,1.947,0,0,0-1.633.751A2.841,2.841,0,0,0,2.4-6.95Zm0,0" transform="translate(-0.313 11.359)" fill="#fff"/>
            </g>
          </g>
        </g>
        <g id="Group_824" data-name="Group 824" transform="translate(62.178 162.944)">
          <g id="Group_823" data-name="Group 823" transform="translate(0 0)">
            <g id="Group_822" data-name="Group 822" transform="translate(0 0)">
              <path id="Path_331" data-name="Path 331" d="M5.735-11.156v1.7H2.755V-7.76H5.5v1.7H2.755v3.409H.813v-8.509Zm0,0" transform="translate(-0.813 11.156)" fill="#fff"/>
            </g>
          </g>
        </g>
        <g id="Group_827" data-name="Group 827" transform="translate(70.451 162.789)">
          <g id="Group_826" data-name="Group 826" transform="translate(0 0)">
            <g id="Group_825" data-name="Group 825" transform="translate(0 0)">
              <path id="Path_332" data-name="Path 332" d="M3.828-11.359a4.584,4.584,0,0,1,1.347.2,4.183,4.183,0,0,1,.977.405l.31.2L5.687-9c-.066-.048-.152-.1-.262-.167a5.441,5.441,0,0,0-.62-.262A2.489,2.489,0,0,0,3.959-9.6a1.151,1.151,0,0,0-.751.215.658.658,0,0,0-.262.548.527.527,0,0,0,.119.334,1.929,1.929,0,0,0,.429.322c.2.113.372.2.524.274s.384.164.7.3a4.315,4.315,0,0,1,1.406.965,1.9,1.9,0,0,1,.584,1.359A2.944,2.944,0,0,1,6.45-4.006a2.081,2.081,0,0,1-.727.858A3.149,3.149,0,0,1,4.71-2.7a4.511,4.511,0,0,1-1.2.155,5.151,5.151,0,0,1-1.1-.119,3.882,3.882,0,0,1-.894-.274c-.238-.119-.459-.229-.655-.334a2.428,2.428,0,0,1-.417-.286L.313-3.66l.965-1.633c.086.072.2.161.346.262a5.84,5.84,0,0,0,.763.429,2.29,2.29,0,0,0,.977.262c.816,0,1.228-.277,1.228-.834a.558.558,0,0,0-.1-.31.9.9,0,0,0-.31-.3,2.717,2.717,0,0,0-.393-.238c-.113-.063-.295-.155-.548-.274S2.8-6.5,2.672-6.568a3.25,3.25,0,0,1-1.2-.953,2.044,2.044,0,0,1-.417-1.239A2.349,2.349,0,0,1,1.9-10.632,2.886,2.886,0,0,1,3.828-11.359Zm0,0" transform="translate(-0.313 11.359)" fill="#fff"/>
            </g>
          </g>
        </g>
        <g id="Group_830" data-name="Group 830" transform="translate(77.374 162.789)">
          <g id="Group_829" data-name="Group 829" transform="translate(0 0)">
            <g id="Group_828" data-name="Group 828" transform="translate(0 0)">
              <path id="Path_333" data-name="Path 333" d="M5.223-4.447a2.8,2.8,0,0,0,.858-.131,3.147,3.147,0,0,0,.608-.262l.2-.131.822,1.645a.568.568,0,0,1-.119.083c-.048.033-.161.1-.334.191a4.15,4.15,0,0,1-.56.25,5.883,5.883,0,0,1-.787.179,5.961,5.961,0,0,1-.989.083,4.584,4.584,0,0,1-2.252-.584,4.674,4.674,0,0,1-1.716-1.6A4.087,4.087,0,0,1,.313-6.938,4,4,0,0,1,.694-8.654,4.394,4.394,0,0,1,1.707-10.06,4.763,4.763,0,0,1,3.185-11a4.426,4.426,0,0,1,1.74-.358,5.408,5.408,0,0,1,1.514.2,3.409,3.409,0,0,1,.989.393l.286.191L6.891-8.916a1.08,1.08,0,0,0-.226-.155A3.8,3.8,0,0,0,6.093-9.3a2.6,2.6,0,0,0-.87-.155,3.373,3.373,0,0,0-1.263.226,2.216,2.216,0,0,0-.882.608,2.939,2.939,0,0,0-.5.8,2.35,2.35,0,0,0-.167.87,2.474,2.474,0,0,0,.727,1.74A2.739,2.739,0,0,0,5.223-4.447Zm0,0" transform="translate(-0.313 11.359)" fill="#fff"/>
            </g>
          </g>
        </g>
        <g id="Group_833" data-name="Group 833" transform="translate(85.514 162.944)">
          <g id="Group_832" data-name="Group 832" transform="translate(0 0)">
            <g id="Group_831" data-name="Group 831" transform="translate(0 0)">
              <path id="Path_334" data-name="Path 334" d="M2.755-11.156v8.509H.813v-8.509Zm0,0" transform="translate(-0.813 11.156)" fill="#fff"/>
            </g>
          </g>
        </g>
        <g id="Group_836" data-name="Group 836" transform="translate(88.687 162.944)">
          <g id="Group_835" data-name="Group 835" transform="translate(0 0)">
            <g id="Group_834" data-name="Group 834" transform="translate(0 0)">
              <path id="Path_335" data-name="Path 335" d="M5.675-11.156v1.7H2.755V-7.76h2.8v1.7h-2.8v1.7h2.92v1.7H.813v-8.509Zm0,0" transform="translate(-0.813 11.156)" fill="#fff"/>
            </g>
          </g>
        </g>
        <g id="Group_839" data-name="Group 839" transform="translate(94.662 162.944)">
          <g id="Group_838" data-name="Group 838" transform="translate(0 0)">
            <g id="Group_837" data-name="Group 837" transform="translate(0 0)">
              <path id="Path_336" data-name="Path 336" d="M2.755-7.927v5.28H.813v-8.509H2.755l3.373,5.28h.024v-5.28H8.094v8.509H6.152L2.767-7.927Zm0,0" transform="translate(-0.813 11.156)" fill="#fff"/>
            </g>
          </g>
        </g>
        <g id="Group_842" data-name="Group 842" transform="translate(102.791 162.789)">
          <g id="Group_841" data-name="Group 841" transform="translate(0 0)">
            <g id="Group_840" data-name="Group 840" transform="translate(0 0)">
              <path id="Path_337" data-name="Path 337" d="M5.223-4.447a2.8,2.8,0,0,0,.858-.131,3.147,3.147,0,0,0,.608-.262l.2-.131.822,1.645a.568.568,0,0,1-.119.083c-.048.033-.161.1-.334.191a4.15,4.15,0,0,1-.56.25,5.883,5.883,0,0,1-.787.179,5.961,5.961,0,0,1-.989.083,4.584,4.584,0,0,1-2.252-.584,4.674,4.674,0,0,1-1.716-1.6A4.087,4.087,0,0,1,.313-6.938,4,4,0,0,1,.694-8.654,4.394,4.394,0,0,1,1.707-10.06,4.763,4.763,0,0,1,3.185-11a4.426,4.426,0,0,1,1.74-.358,5.408,5.408,0,0,1,1.514.2,3.409,3.409,0,0,1,.989.393l.286.191L6.891-8.916a1.08,1.08,0,0,0-.226-.155A3.8,3.8,0,0,0,6.093-9.3a2.6,2.6,0,0,0-.87-.155,3.373,3.373,0,0,0-1.263.226,2.216,2.216,0,0,0-.882.608,2.939,2.939,0,0,0-.5.8,2.35,2.35,0,0,0-.167.87,2.474,2.474,0,0,0,.727,1.74A2.739,2.739,0,0,0,5.223-4.447Zm0,0" transform="translate(-0.313 11.359)" fill="#fff"/>
            </g>
          </g>
        </g>
        <g id="Group_845" data-name="Group 845" transform="translate(110.93 162.944)">
          <g id="Group_844" data-name="Group 844" transform="translate(0 0)">
            <g id="Group_843" data-name="Group 843" transform="translate(0 0)">
              <path id="Path_338" data-name="Path 338" d="M5.675-11.156v1.7H2.755V-7.76h2.8v1.7h-2.8v1.7h2.92v1.7H.813v-8.509Zm0,0" transform="translate(-0.813 11.156)" fill="#fff"/>
            </g>
          </g>
        </g>
        <path id="Path_339" data-name="Path 339" d="M18.478,14.847a.519.519,0,0,1-.563.554H8.834a.2.2,0,0,0-.226.226v3.5c0,.143.074.217.226.217H14.08a.532.532,0,0,1,.563.563v4.836a.567.567,0,0,1-.155.417.552.552,0,0,1-.408.146H8.834c-.152,0-.226.071-.226.217v9.389a.555.555,0,0,1-.155.411.543.543,0,0,1-.4.146H2.171a.587.587,0,0,1-.417-.146.574.574,0,0,1-.146-.411V9.967a.543.543,0,0,1,.146-.4.565.565,0,0,1,.417-.152H17.915a.535.535,0,0,1,.408.152.525.525,0,0,1,.155.4ZM22.76,35.471a.587.587,0,0,1-.417-.146.574.574,0,0,1-.146-.411V9.967a.543.543,0,0,1,.146-.4.565.565,0,0,1,.417-.152h5.882a.527.527,0,0,1,.554.554V34.914a.555.555,0,0,1-.155.411.548.548,0,0,1-.4.146Zm27.96-20.624a.555.555,0,0,1-.155.408.548.548,0,0,1-.408.146H41.075a.2.2,0,0,0-.227.226v3.5c0,.143.075.217.227.217h5.244a.532.532,0,0,1,.563.563v4.836a.555.555,0,0,1-.155.417.543.543,0,0,1-.408.146H41.075c-.152,0-.227.071-.227.217v3.727a.2.2,0,0,0,.227.227h9.081a.56.56,0,0,1,.408.146.541.541,0,0,1,.155.408v4.881a.567.567,0,0,1-.155.411.56.56,0,0,1-.408.146H34.413A.587.587,0,0,1,34,35.325a.574.574,0,0,1-.146-.411V9.967a.543.543,0,0,1,.146-.4.565.565,0,0,1,.417-.152H50.156a.527.527,0,0,1,.563.554Zm4.8,20.624a.6.6,0,0,1-.42-.146.587.587,0,0,1-.146-.411V9.967a.555.555,0,0,1,.146-.4.577.577,0,0,1,.42-.152H61.4a.522.522,0,0,1,.554.554V29.253a.2.2,0,0,0,.229.227h9.344a.56.56,0,0,1,.408.146.548.548,0,0,1,.146.408v4.881a.574.574,0,0,1-.146.411.56.56,0,0,1-.408.146Zm21.22,0a.6.6,0,0,1-.42-.146.585.585,0,0,1-.143-.411V9.967a.553.553,0,0,1,.143-.4.577.577,0,0,1,.42-.152h8.444a11.148,11.148,0,0,1,4.845.989,7.648,7.648,0,0,1,3.236,2.771A7.433,7.433,0,0,1,94.419,17.3V27.543A7.568,7.568,0,0,1,93.266,31.7a7.688,7.688,0,0,1-3.236,2.789,11.236,11.236,0,0,1-4.845.983Zm6.436-6.218a.2.2,0,0,0,.226.227l1.818-.045a1.924,1.924,0,0,0,1.546-.736,3.165,3.165,0,0,0,.653-1.981v-8.6a2.993,2.993,0,0,0-.617-1.972,1.98,1.98,0,0,0-1.618-.745H83.4a.2.2,0,0,0-.226.226Zm24.572,6.516a11.372,11.372,0,0,1-4.827-.962,7.62,7.62,0,0,1-3.2-2.7A7.14,7.14,0,0,1,98.588,28.1v-.855a.544.544,0,0,1,.146-.408.56.56,0,0,1,.417-.155h5.771a.525.525,0,0,1,.4.155.537.537,0,0,1,.155.408v.518a1.83,1.83,0,0,0,.688,1.418,2.749,2.749,0,0,0,1.847.59,1.816,1.816,0,0,0,1.371-.465,1.482,1.482,0,0,0,.447-1.064,1.4,1.4,0,0,0-.62-1.162,13.1,13.1,0,0,0-2.318-1.254l-.9-.447a32.3,32.3,0,0,1-3.608-2.008,9.5,9.5,0,0,1-2.643-2.664,6.91,6.91,0,0,1-1.12-3.963,7.121,7.121,0,0,1,1.138-4,7.5,7.5,0,0,1,3.126-2.682,10.5,10.5,0,0,1,4.564-.953,10.7,10.7,0,0,1,4.726,1.01,7.716,7.716,0,0,1,3.263,2.825,7.569,7.569,0,0,1,1.174,4.171v.593a.572.572,0,0,1-.155.417.556.556,0,0,1-.411.146h-5.771a.566.566,0,0,1-.408-.146.579.579,0,0,1-.146-.417v-.518a1.977,1.977,0,0,0-.653-1.454,2.351,2.351,0,0,0-1.728-.638,1.955,1.955,0,0,0-1.326.438,1.453,1.453,0,0,0-.5,1.171,1.861,1.861,0,0,0,.834,1.472,20.233,20.233,0,0,0,3.3,1.8c.247.152.62.352,1.117.6a32.584,32.584,0,0,1,3.164,1.916,7.162,7.162,0,0,1,2.008,2.2,6.324,6.324,0,0,1,.816,3.325,7.023,7.023,0,0,1-2.479,5.664A9.816,9.816,0,0,1,107.75,35.769Zm31.976.075a10.391,10.391,0,0,1-4.919-1.12,7.943,7.943,0,0,1-3.271-3.144,9.356,9.356,0,0,1-1.153-4.707V18.008a9.257,9.257,0,0,1,1.153-4.69,7.861,7.861,0,0,1,3.271-3.108,11.588,11.588,0,0,1,9.853,0,7.851,7.851,0,0,1,3.3,3.108,9.259,9.259,0,0,1,1.153,4.69v8.864a9.215,9.215,0,0,1-1.174,4.707,8.047,8.047,0,0,1-3.3,3.144A10.353,10.353,0,0,1,139.726,35.844Zm0-5.992a2.189,2.189,0,0,0,1.734-.745,2.886,2.886,0,0,0,.655-1.982V17.818a2.877,2.877,0,0,0-.655-1.972,2.2,2.2,0,0,0-1.734-.745,2.158,2.158,0,0,0-1.692.745,2.891,2.891,0,0,0-.653,1.972v9.308a2.9,2.9,0,0,0,.653,1.982A2.149,2.149,0,0,0,139.726,29.852Zm30.647-15a.555.555,0,0,1-.155.408.548.548,0,0,1-.408.146h-9.082a.2.2,0,0,0-.226.226v3.5a.2.2,0,0,0,.226.217h5.244a.532.532,0,0,1,.563.563v4.836a.555.555,0,0,1-.155.417.543.543,0,0,1-.408.146h-5.244c-.152,0-.226.071-.226.217v9.389a.567.567,0,0,1-.155.411.547.547,0,0,1-.4.146h-5.882a.587.587,0,0,1-.417-.146.574.574,0,0,1-.146-.411V9.967a.543.543,0,0,1,.146-.4.565.565,0,0,1,.417-.152h15.744a.527.527,0,0,1,.563.554Zm0,0" transform="translate(-1.272 248.191)" fill="none" stroke="#fff" stroke-width="1.159"/>
        <path id="Path_340" data-name="Path 340" d="M10.329,84.406A11.373,11.373,0,0,1,5.5,83.444a7.62,7.62,0,0,1-3.2-2.7,7.14,7.14,0,0,1-1.138-4.007v-.855a.543.543,0,0,1,.146-.408.56.56,0,0,1,.417-.155H7.5a.525.525,0,0,1,.4.155.536.536,0,0,1,.155.408V76.4a1.83,1.83,0,0,0,.688,1.418,2.749,2.749,0,0,0,1.847.59,1.815,1.815,0,0,0,1.371-.465,1.482,1.482,0,0,0,.447-1.064,1.4,1.4,0,0,0-.62-1.162,13.09,13.09,0,0,0-2.318-1.254l-.9-.447a32.289,32.289,0,0,1-3.608-2.008,9.5,9.5,0,0,1-2.643-2.664A6.909,6.909,0,0,1,1.2,65.382a7.12,7.12,0,0,1,1.138-4A7.5,7.5,0,0,1,5.466,58.7a10.5,10.5,0,0,1,4.565-.953,10.7,10.7,0,0,1,4.725,1.01,7.715,7.715,0,0,1,3.263,2.825,7.569,7.569,0,0,1,1.174,4.171v.593a.567.567,0,0,1-.155.417.555.555,0,0,1-.411.146H12.855a.567.567,0,0,1-.408-.146.575.575,0,0,1-.146-.417v-.518a1.976,1.976,0,0,0-.652-1.454,2.352,2.352,0,0,0-1.728-.638,1.955,1.955,0,0,0-1.326.438,1.453,1.453,0,0,0-.5,1.171,1.861,1.861,0,0,0,.834,1.472,20.24,20.24,0,0,0,3.3,1.8q.371.228,1.117.6a32.549,32.549,0,0,1,3.164,1.916,7.162,7.162,0,0,1,2.008,2.2,6.324,6.324,0,0,1,.816,3.325,7.023,7.023,0,0,1-2.479,5.664A9.816,9.816,0,0,1,10.329,84.406Zm22.185,0a10.4,10.4,0,0,1-4.845-1.082,7.848,7.848,0,0,1-3.236-3.072,9.081,9.081,0,0,1-1.153-4.636v-9.2a8.89,8.89,0,0,1,1.153-4.571,7.764,7.764,0,0,1,3.236-3.036,10.546,10.546,0,0,1,4.845-1.064,10.514,10.514,0,0,1,4.818,1.046,7.721,7.721,0,0,1,3.227,2.935,8.38,8.38,0,0,1,1.156,4.436.624.624,0,0,1-.155.426.521.521,0,0,1-.411.164l-5.879.262c-.369,0-.554-.17-.554-.516v-.411a2.4,2.4,0,0,0-.6-1.716,2.07,2.07,0,0,0-1.6-.638,2.124,2.124,0,0,0-1.618.656,2.372,2.372,0,0,0-.617,1.7v9.972a2.372,2.372,0,0,0,.617,1.7,2.139,2.139,0,0,0,1.618.647,2.085,2.085,0,0,0,1.6-.629,2.4,2.4,0,0,0,.6-1.716v-.447q0-.518.554-.518l5.879.256a.532.532,0,0,1,.566.563,8.558,8.558,0,0,1-1.156,4.463,7.663,7.663,0,0,1-3.245,2.979A10.556,10.556,0,0,1,32.514,84.406Zm14.078-.3a.592.592,0,0,1-.417-.146.572.572,0,0,1-.146-.408V58.6a.543.543,0,0,1,.146-.4.57.57,0,0,1,.417-.152h5.881a.526.526,0,0,1,.554.554v24.95a.553.553,0,0,1-.155.408.543.543,0,0,1-.4.146ZM74.552,63.484a.519.519,0,0,1-.563.554H64.907a.2.2,0,0,0-.226.226v3.5a.2.2,0,0,0,.226.218h5.247a.532.532,0,0,1,.563.563v4.836a.567.567,0,0,1-.155.417.552.552,0,0,1-.408.146H64.907c-.152,0-.226.071-.226.217V77.89a.2.2,0,0,0,.226.227h9.082a.555.555,0,0,1,.408.146.53.53,0,0,1,.155.408v4.883a.519.519,0,0,1-.563.554H58.245a.587.587,0,0,1-.417-.146.572.572,0,0,1-.146-.408V58.6a.543.543,0,0,1,.146-.4.565.565,0,0,1,.417-.152H73.989a.535.535,0,0,1,.408.152.526.526,0,0,1,.155.4ZM91.487,58.6a.555.555,0,0,1,.146-.4.565.565,0,0,1,.411-.152h5.843a.535.535,0,0,1,.408.152.525.525,0,0,1,.155.4v24.95a.519.519,0,0,1-.563.554H91.752a.607.607,0,0,1-.638-.411L85.945,71.565c-.027-.1-.078-.155-.155-.155s-.11.063-.11.191l.075,11.954a.565.565,0,0,1-.155.408.555.555,0,0,1-.4.146H79.355a.587.587,0,0,1-.417-.146.572.572,0,0,1-.146-.408V58.6a.543.543,0,0,1,.146-.4.565.565,0,0,1,.417-.152h6.1a.6.6,0,0,1,.635.408L91.261,70.59c.024.1.075.149.146.137s.119-.086.119-.209Zm20.55,25.8a10.4,10.4,0,0,1-4.845-1.082,7.812,7.812,0,0,1-3.236-3.072,9.052,9.052,0,0,1-1.156-4.636v-9.2a8.862,8.862,0,0,1,1.156-4.571,7.729,7.729,0,0,1,3.236-3.036,11.593,11.593,0,0,1,9.662-.018,7.756,7.756,0,0,1,3.227,2.935,8.378,8.378,0,0,1,1.153,4.436.61.61,0,0,1-.155.426.511.511,0,0,1-.408.164l-5.882.262c-.369,0-.554-.17-.554-.516v-.411a2.4,2.4,0,0,0-.6-1.716,2.079,2.079,0,0,0-1.6-.638,2.115,2.115,0,0,0-1.618.656,2.361,2.361,0,0,0-.62,1.7v9.972a2.361,2.361,0,0,0,.62,1.7,2.13,2.13,0,0,0,1.618.647,2.094,2.094,0,0,0,1.6-.629,2.4,2.4,0,0,0,.6-1.716v-.447q0-.518.554-.518l5.882.256a.532.532,0,0,1,.563.563,8.557,8.557,0,0,1-1.153,4.463,7.688,7.688,0,0,1-3.248,2.979A10.536,10.536,0,0,1,112.037,84.406Zm30.382-20.922a.515.515,0,0,1-.563.554h-9.079a.2.2,0,0,0-.229.226v3.5c0,.143.077.218.229.218h5.244a.532.532,0,0,1,.563.563v4.836a.555.555,0,0,1-.155.417.543.543,0,0,1-.408.146h-5.244c-.152,0-.229.071-.229.217V77.89a.2.2,0,0,0,.229.227h9.079a.567.567,0,0,1,.411.146.539.539,0,0,1,.152.408v4.883a.515.515,0,0,1-.563.554H126.115a.6.6,0,0,1-.42-.146.583.583,0,0,1-.143-.408V58.6a.554.554,0,0,1,.143-.4.577.577,0,0,1,.42-.152h15.741a.546.546,0,0,1,.411.152.535.535,0,0,1,.152.4Zm0,0" transform="translate(-1.167 236.651)" fill="none" stroke="#fff" stroke-width="1.159"/>
        <g id="Group_848" data-name="Group 848" transform="translate(0.337 0.298)">
          <g id="Group_847" data-name="Group 847" transform="translate(0 0)">
            <g id="Group_846" data-name="Group 846" transform="translate(0)">
              <path id="Path_341" data-name="Path 341" d="M18.473-28.737a.567.567,0,0,1-.155.417.551.551,0,0,1-.405.143H8.832a.2.2,0,0,0-.226.226v3.5c0,.143.074.215.226.215h5.256a.516.516,0,0,1,.393.155.534.534,0,0,1,.155.405v4.839a.567.567,0,0,1-.155.417.531.531,0,0,1-.393.143H8.832a.2.2,0,0,0-.226.226v9.379a.567.567,0,0,1-.155.417.531.531,0,0,1-.393.143H2.17a.586.586,0,0,1-.417-.143.586.586,0,0,1-.143-.417V-33.612a.551.551,0,0,1,.143-.405.567.567,0,0,1,.417-.155H17.913a.534.534,0,0,1,.405.155.534.534,0,0,1,.155.405Zm0,0" transform="translate(-1.609 34.172)" fill="#fff"/>
            </g>
          </g>
        </g>
        <g id="Group_851" data-name="Group 851" transform="translate(20.925 0.298)">
          <g id="Group_850" data-name="Group 850" transform="translate(0 0)">
            <g id="Group_849" data-name="Group 849" transform="translate(0)">
              <path id="Path_342" data-name="Path 342" d="M2.17-8.107a.586.586,0,0,1-.417-.143.586.586,0,0,1-.143-.417V-33.612a.551.551,0,0,1,.143-.405.567.567,0,0,1,.417-.155H8.057a.516.516,0,0,1,.393.155.534.534,0,0,1,.155.405V-8.668a.567.567,0,0,1-.155.417.531.531,0,0,1-.393.143Zm0,0" transform="translate(-1.609 34.172)" fill="#fff"/>
            </g>
          </g>
        </g>
        <g id="Group_854" data-name="Group 854" transform="translate(32.578 0.298)">
          <g id="Group_853" data-name="Group 853" transform="translate(0 0)">
            <g id="Group_852" data-name="Group 852" transform="translate(0)">
              <path id="Path_343" data-name="Path 343" d="M18.473-28.737a.567.567,0,0,1-.155.417.551.551,0,0,1-.405.143H8.832a.2.2,0,0,0-.226.226v3.5c0,.143.074.215.226.215h5.256a.516.516,0,0,1,.393.155.534.534,0,0,1,.155.405v4.839a.567.567,0,0,1-.155.417.531.531,0,0,1-.393.143H8.832a.2.2,0,0,0-.226.226v3.718a.2.2,0,0,0,.226.226h9.081a.534.534,0,0,1,.405.155.534.534,0,0,1,.155.405v4.874a.567.567,0,0,1-.155.417.551.551,0,0,1-.405.143H2.17a.586.586,0,0,1-.417-.143.586.586,0,0,1-.143-.417V-33.612a.551.551,0,0,1,.143-.405.567.567,0,0,1,.417-.155H17.913a.534.534,0,0,1,.405.155.534.534,0,0,1,.155.405Zm0,0" transform="translate(-1.609 34.172)" fill="#fff"/>
            </g>
          </g>
        </g>
        <g id="Group_857" data-name="Group 857" transform="translate(53.686 0.298)">
          <g id="Group_856" data-name="Group 856" transform="translate(0 0)">
            <g id="Group_855" data-name="Group 855" transform="translate(0)">
              <path id="Path_344" data-name="Path 344" d="M2.17-8.107a.586.586,0,0,1-.417-.143.586.586,0,0,1-.143-.417V-33.612a.551.551,0,0,1,.143-.405.567.567,0,0,1,.417-.155H8.057a.516.516,0,0,1,.393.155.534.534,0,0,1,.155.405v19.283a.2.2,0,0,0,.226.226h9.344a.534.534,0,0,1,.405.155.534.534,0,0,1,.155.405v4.874a.567.567,0,0,1-.155.417.551.551,0,0,1-.405.143Zm0,0" transform="translate(-1.609 34.172)" fill="#fff"/>
            </g>
          </g>
        </g>
        <g id="Group_860" data-name="Group 860" transform="translate(74.906 0.298)">
          <g id="Group_859" data-name="Group 859" transform="translate(0 0)">
            <g id="Group_858" data-name="Group 858" transform="translate(0)">
              <path id="Path_345" data-name="Path 345" d="M2.17-8.107a.586.586,0,0,1-.417-.143.586.586,0,0,1-.143-.417V-33.612a.551.551,0,0,1,.143-.405.567.567,0,0,1,.417-.155h8.45a11.191,11.191,0,0,1,4.839.989A7.7,7.7,0,0,1,18.7-30.406a7.446,7.446,0,0,1,1.156,4.124v10.249A7.554,7.554,0,0,1,18.7-11.885,7.644,7.644,0,0,1,15.458-9.1a11.148,11.148,0,0,1-4.839.989Zm6.436-6.221a.2.2,0,0,0,.226.226l1.823-.036a1.9,1.9,0,0,0,1.537-.739,3.23,3.23,0,0,0,.667-1.978v-8.6a2.978,2.978,0,0,0-.62-1.966,2,2,0,0,0-1.621-.751H8.832a.2.2,0,0,0-.226.226Zm0,0" transform="translate(-1.609 34.172)" fill="#fff"/>
            </g>
          </g>
        </g>
        <g id="Group_863" data-name="Group 863" transform="translate(97.319 0)">
          <g id="Group_862" data-name="Group 862" transform="translate(0 0)">
            <g id="Group_861" data-name="Group 861" transform="translate(0)">
              <path id="Path_346" data-name="Path 346" d="M10.325-7.9A11.245,11.245,0,0,1,5.51-8.868,7.588,7.588,0,0,1,2.3-11.561a7.176,7.176,0,0,1-1.132-4.016v-.846a.551.551,0,0,1,.143-.405.567.567,0,0,1,.417-.155H7.5a.534.534,0,0,1,.405.155.534.534,0,0,1,.155.405v.512a1.811,1.811,0,0,0,.691,1.418,2.7,2.7,0,0,0,1.835.6,1.811,1.811,0,0,0,1.371-.465,1.48,1.48,0,0,0,.453-1.061,1.414,1.414,0,0,0-.62-1.168,13.041,13.041,0,0,0-2.312-1.251l-.894-.453a31.143,31.143,0,0,1-3.611-2,9.529,9.529,0,0,1-2.646-2.67,6.88,6.88,0,0,1-1.12-3.957,7.129,7.129,0,0,1,1.132-4,7.628,7.628,0,0,1,3.134-2.681,10.419,10.419,0,0,1,4.553-.953,10.723,10.723,0,0,1,4.731,1.013,7.767,7.767,0,0,1,3.254,2.825,7.51,7.51,0,0,1,1.18,4.171v.6a.567.567,0,0,1-.155.417.551.551,0,0,1-.405.143H12.863a.586.586,0,0,1-.417-.143.586.586,0,0,1-.143-.417v-.524a1.975,1.975,0,0,0-.655-1.454,2.367,2.367,0,0,0-1.728-.632,1.962,1.962,0,0,0-1.323.429,1.472,1.472,0,0,0-.5,1.18,1.855,1.855,0,0,0,.834,1.466,19.574,19.574,0,0,0,3.3,1.8c.244.152.62.352,1.12.6a34.356,34.356,0,0,1,3.158,1.931,7.077,7.077,0,0,1,2,2.193,6.312,6.312,0,0,1,.822,3.325,7.014,7.014,0,0,1-2.479,5.661A9.773,9.773,0,0,1,10.325-7.9Zm0,0" transform="translate(-1.172 34.563)" fill="#fff"/>
            </g>
          </g>
        </g>
        <g id="Group_866" data-name="Group 866" transform="translate(129.111 0)">
          <g id="Group_865" data-name="Group 865" transform="translate(0 0)">
            <g id="Group_864" data-name="Group 864">
              <path id="Path_347" data-name="Path 347" d="M10.562-7.831a10.448,10.448,0,0,1-4.91-1.108,7.929,7.929,0,0,1-3.277-3.146A9.39,9.39,0,0,1,1.219-16.8V-25.66a9.192,9.192,0,0,1,1.156-4.684,7.848,7.848,0,0,1,3.277-3.111,10.448,10.448,0,0,1,4.91-1.108A10.564,10.564,0,0,1,15.5-33.454a7.758,7.758,0,0,1,3.289,3.111,9.222,9.222,0,0,1,1.156,4.684V-16.8a9.334,9.334,0,0,1-1.168,4.72,8.05,8.05,0,0,1-3.289,3.146A10.488,10.488,0,0,1,10.562-7.831Zm0-5.995a2.172,2.172,0,0,0,1.728-.739,2.908,2.908,0,0,0,.656-1.978v-9.308a2.871,2.871,0,0,0-.656-1.967,2.163,2.163,0,0,0-1.728-.751,2.14,2.14,0,0,0-1.692.751,2.857,2.857,0,0,0-.656,1.967v9.308a2.893,2.893,0,0,0,.656,1.978A2.149,2.149,0,0,0,10.562-13.825Zm0,0" transform="translate(-1.219 34.563)" fill="#fff"/>
            </g>
          </g>
        </g>
        <g id="Group_869" data-name="Group 869" transform="translate(152.23 0.298)">
          <g id="Group_868" data-name="Group 868" transform="translate(0 0)">
            <g id="Group_867" data-name="Group 867" transform="translate(0)">
              <path id="Path_348" data-name="Path 348" d="M18.473-28.737a.567.567,0,0,1-.155.417.551.551,0,0,1-.405.143H8.832a.2.2,0,0,0-.226.226v3.5c0,.143.074.215.226.215h5.256a.516.516,0,0,1,.393.155.534.534,0,0,1,.155.405v4.839a.567.567,0,0,1-.155.417.531.531,0,0,1-.393.143H8.832a.2.2,0,0,0-.226.226v9.379a.567.567,0,0,1-.155.417.531.531,0,0,1-.393.143H2.17a.586.586,0,0,1-.417-.143.586.586,0,0,1-.143-.417V-33.612a.551.551,0,0,1,.143-.405.567.567,0,0,1,.417-.155H17.913a.534.534,0,0,1,.405.155.534.534,0,0,1,.155.405Zm0,0" transform="translate(-1.609 34.172)" fill="#fff"/>
            </g>
          </g>
        </g>
        <g id="Group_872" data-name="Group 872" transform="translate(0.004 37.184)">
          <g id="Group_871" data-name="Group 871" transform="translate(0 0)">
            <g id="Group_870" data-name="Group 870" transform="translate(0)">
              <path id="Path_349" data-name="Path 349" d="M10.325-7.9A11.245,11.245,0,0,1,5.51-8.868,7.588,7.588,0,0,1,2.3-11.561a7.176,7.176,0,0,1-1.132-4.016v-.846a.551.551,0,0,1,.143-.405.567.567,0,0,1,.417-.155H7.5a.534.534,0,0,1,.405.155.534.534,0,0,1,.155.405v.512a1.811,1.811,0,0,0,.691,1.418,2.7,2.7,0,0,0,1.835.6,1.811,1.811,0,0,0,1.371-.465,1.48,1.48,0,0,0,.453-1.061,1.414,1.414,0,0,0-.62-1.168,13.041,13.041,0,0,0-2.312-1.251l-.894-.453a31.143,31.143,0,0,1-3.611-2,9.529,9.529,0,0,1-2.646-2.67,6.88,6.88,0,0,1-1.12-3.957,7.129,7.129,0,0,1,1.132-4,7.628,7.628,0,0,1,3.134-2.681,10.419,10.419,0,0,1,4.553-.953,10.723,10.723,0,0,1,4.731,1.013,7.767,7.767,0,0,1,3.254,2.825,7.51,7.51,0,0,1,1.18,4.171v.6a.567.567,0,0,1-.155.417.551.551,0,0,1-.405.143H12.863a.586.586,0,0,1-.417-.143.586.586,0,0,1-.143-.417v-.524a1.975,1.975,0,0,0-.655-1.454,2.367,2.367,0,0,0-1.728-.632,1.962,1.962,0,0,0-1.323.429,1.472,1.472,0,0,0-.5,1.18,1.855,1.855,0,0,0,.834,1.466,19.574,19.574,0,0,0,3.3,1.8c.244.152.62.352,1.12.6a34.356,34.356,0,0,1,3.158,1.931,7.077,7.077,0,0,1,2,2.193,6.312,6.312,0,0,1,.822,3.325,7.014,7.014,0,0,1-2.479,5.661A9.773,9.773,0,0,1,10.325-7.9Zm0,0" transform="translate(-1.172 34.563)" fill="#fff"/>
            </g>
          </g>
        </g>
        <g id="Group_875" data-name="Group 875" transform="translate(22.116 37.184)">
          <g id="Group_874" data-name="Group 874" transform="translate(0 0)">
            <g id="Group_873" data-name="Group 873">
              <path id="Path_350" data-name="Path 350" d="M10.455-7.9A10.432,10.432,0,0,1,5.616-8.975,7.816,7.816,0,0,1,2.375-12.05a9.051,9.051,0,0,1-1.156-4.636v-9.2a8.853,8.853,0,0,1,1.156-4.576A7.733,7.733,0,0,1,5.616-33.5a10.542,10.542,0,0,1,4.839-1.061,10.517,10.517,0,0,1,4.815,1.049,7.662,7.662,0,0,1,3.218,2.944,8.341,8.341,0,0,1,1.156,4.421.611.611,0,0,1-.155.429.484.484,0,0,1-.393.167l-5.887.262c-.375,0-.56-.173-.56-.524v-.405a2.411,2.411,0,0,0-.6-1.716,2.1,2.1,0,0,0-1.6-.632,2.132,2.132,0,0,0-1.621.655,2.361,2.361,0,0,0-.62,1.692v9.975a2.371,2.371,0,0,0,.62,1.7,2.145,2.145,0,0,0,1.621.644,2.087,2.087,0,0,0,1.6-.632,2.4,2.4,0,0,0,.6-1.716v-.441c0-.349.185-.524.56-.524l5.887.262a.516.516,0,0,1,.393.155.534.534,0,0,1,.155.405,8.58,8.58,0,0,1-1.156,4.469,7.663,7.663,0,0,1-3.23,2.979A10.656,10.656,0,0,1,10.455-7.9Zm0,0" transform="translate(-1.219 34.563)" fill="#fff"/>
            </g>
          </g>
        </g>
        <g id="Group_878" data-name="Group 878" transform="translate(44.863 37.482)">
          <g id="Group_877" data-name="Group 877" transform="translate(0 0)">
            <g id="Group_876" data-name="Group 876" transform="translate(0)">
              <path id="Path_351" data-name="Path 351" d="M2.17-8.107a.586.586,0,0,1-.417-.143.586.586,0,0,1-.143-.417V-33.612a.551.551,0,0,1,.143-.405.567.567,0,0,1,.417-.155H8.057a.516.516,0,0,1,.393.155.534.534,0,0,1,.155.405V-8.668a.567.567,0,0,1-.155.417.531.531,0,0,1-.393.143Zm0,0" transform="translate(-1.609 34.172)" fill="#fff"/>
            </g>
          </g>
        </g>
        <g id="Group_881" data-name="Group 881" transform="translate(56.515 37.482)">
          <g id="Group_880" data-name="Group 880" transform="translate(0 0)">
            <g id="Group_879" data-name="Group 879" transform="translate(0)">
              <path id="Path_352" data-name="Path 352" d="M18.473-28.737a.567.567,0,0,1-.155.417.551.551,0,0,1-.405.143H8.832a.2.2,0,0,0-.226.226v3.5c0,.143.074.215.226.215h5.256a.516.516,0,0,1,.393.155.534.534,0,0,1,.155.405v4.839a.567.567,0,0,1-.155.417.531.531,0,0,1-.393.143H8.832a.2.2,0,0,0-.226.226v3.718a.2.2,0,0,0,.226.226h9.081a.534.534,0,0,1,.405.155.534.534,0,0,1,.155.405v4.874a.567.567,0,0,1-.155.417.551.551,0,0,1-.405.143H2.17a.586.586,0,0,1-.417-.143.586.586,0,0,1-.143-.417V-33.612a.551.551,0,0,1,.143-.405.567.567,0,0,1,.417-.155H17.913a.534.534,0,0,1,.405.155.534.534,0,0,1,.155.405Zm0,0" transform="translate(-1.609 34.172)" fill="#fff"/>
            </g>
          </g>
        </g>
        <g id="Group_884" data-name="Group 884" transform="translate(77.624 37.482)">
          <g id="Group_883" data-name="Group 883" transform="translate(0 0)">
            <g id="Group_882" data-name="Group 882" transform="translate(0)">
              <path id="Path_353" data-name="Path 353" d="M14.3-33.612a.551.551,0,0,1,.143-.405.567.567,0,0,1,.417-.155h5.852a.534.534,0,0,1,.405.155.534.534,0,0,1,.155.405V-8.668a.567.567,0,0,1-.155.417.551.551,0,0,1-.405.143h-6.15a.607.607,0,0,1-.632-.405L8.76-20.657c-.024-.1-.077-.143-.155-.143s-.107.06-.107.179L8.569-8.668a.567.567,0,0,1-.155.417.551.551,0,0,1-.405.143H2.17a.586.586,0,0,1-.417-.143.586.586,0,0,1-.143-.417V-33.612a.551.551,0,0,1,.143-.405.567.567,0,0,1,.417-.155h6.1a.6.6,0,0,1,.632.417l5.184,12.132c.024.1.071.14.143.131s.107-.083.107-.2Zm0,0" transform="translate(-1.609 34.172)" fill="#fff"/>
            </g>
          </g>
        </g>
        <g id="Group_887" data-name="Group 887" transform="translate(101.636 37.184)">
          <g id="Group_886" data-name="Group 886" transform="translate(0 0)">
            <g id="Group_885" data-name="Group 885">
              <path id="Path_354" data-name="Path 354" d="M10.455-7.9A10.432,10.432,0,0,1,5.616-8.975,7.816,7.816,0,0,1,2.375-12.05a9.051,9.051,0,0,1-1.156-4.636v-9.2a8.853,8.853,0,0,1,1.156-4.576A7.733,7.733,0,0,1,5.616-33.5a10.542,10.542,0,0,1,4.839-1.061,10.517,10.517,0,0,1,4.815,1.049,7.662,7.662,0,0,1,3.218,2.944,8.341,8.341,0,0,1,1.156,4.421.611.611,0,0,1-.155.429.484.484,0,0,1-.393.167l-5.887.262c-.375,0-.56-.173-.56-.524v-.405a2.411,2.411,0,0,0-.6-1.716,2.1,2.1,0,0,0-1.6-.632,2.132,2.132,0,0,0-1.621.655,2.361,2.361,0,0,0-.62,1.692v9.975a2.371,2.371,0,0,0,.62,1.7,2.145,2.145,0,0,0,1.621.644,2.087,2.087,0,0,0,1.6-.632,2.4,2.4,0,0,0,.6-1.716v-.441c0-.349.185-.524.56-.524l5.887.262a.516.516,0,0,1,.393.155.534.534,0,0,1,.155.405,8.58,8.58,0,0,1-1.156,4.469,7.663,7.663,0,0,1-3.23,2.979A10.656,10.656,0,0,1,10.455-7.9Zm0,0" transform="translate(-1.219 34.563)" fill="#fff"/>
            </g>
          </g>
        </g>
        <g id="Group_890" data-name="Group 890" transform="translate(124.383 37.482)">
          <g id="Group_889" data-name="Group 889" transform="translate(0 0)">
            <g id="Group_888" data-name="Group 888" transform="translate(0)">
              <path id="Path_355" data-name="Path 355" d="M18.473-28.737a.567.567,0,0,1-.155.417.551.551,0,0,1-.405.143H8.832a.2.2,0,0,0-.226.226v3.5c0,.143.074.215.226.215h5.256a.516.516,0,0,1,.393.155.534.534,0,0,1,.155.405v4.839a.567.567,0,0,1-.155.417.531.531,0,0,1-.393.143H8.832a.2.2,0,0,0-.226.226v3.718a.2.2,0,0,0,.226.226h9.081a.534.534,0,0,1,.405.155.534.534,0,0,1,.155.405v4.874a.567.567,0,0,1-.155.417.551.551,0,0,1-.405.143H2.17a.586.586,0,0,1-.417-.143.586.586,0,0,1-.143-.417V-33.612a.551.551,0,0,1,.143-.405.567.567,0,0,1,.417-.155H17.913a.534.534,0,0,1,.405.155.534.534,0,0,1,.155.405Zm0,0" transform="translate(-1.609 34.172)" fill="#fff"/>
            </g>
          </g>
        </g>
      </g>
    </g>
    <g id="Group_764" data-name="Group 764" transform="translate(1227.685 131.126)">
      <g id="Group_763" data-name="Group 763">
        <path id="Path_297" data-name="Path 297" d="M38.758,0,0,25.839,38.758,51.677,76.081,25.839Z" fill="#de7c4d"/>
        <path id="Path_298" data-name="Path 298" d="M0,18.661,27.274,35.887,53.113,18.661,27.274,0Z" transform="translate(11.484 7.177)" fill="#628fb8"/>
      </g>
      <path id="Path_299" data-name="Path 299" d="M0,0V40.194L38.758,63.161V25.839Z" transform="translate(0 25.839)" fill="#8fa159"/>
      <path id="Path_300" data-name="Path 300" d="M0,0V22.968L25.712,39.317V16.734Z" transform="translate(5.742 37.323)" fill="#628fb8"/>
      <path id="Path_301" data-name="Path 301" d="M25.713,0V22.968L0,39.317V16.734Z" transform="translate(44.5 37.323)" fill="#fff"/>
      <path id="Path_304" data-name="Path 304" d="M0,0V35.9l25.839-17.24Z" transform="translate(38.758 7.177)" fill="#9e6972"/>
      <path id="Path_305" data-name="Path 305" d="M0,63.161,37.322,40.194V0L0,25.839Z" transform="translate(38.758 25.839)" fill="#0287b2"/>
      <path id="Path_306" data-name="Path 306" d="M25.713,0V22.968L0,39.317V16.734Z" transform="translate(44.5 37.323)" fill="#9e6972"/>
      <path id="Path_307" data-name="Path 307" d="M0,11.513,17.6,0l8.1,5.278L25.726,27.9Z" transform="translate(5.742 48.777)" fill="#e1d189"/>
      <path id="Path_308" data-name="Path 308" d="M25.726,11.513,8.125,0,.022,5.278,0,27.9Z" transform="translate(44.486 48.777)" fill="#e1d189"/>
    </g>
  </g>
</svg>
